<svg width="166" height="91" viewBox="0 0 166 91" fill="none" xmlns="http://www.w3.org/2000/svg">
<path d="M68.9999 48.5002C68.9999 67.0002 79.1999 74.9001 83.2999 77.4001C87.2999 74.9001 97.4999 67.0002 97.4999 48.5002C97.4999 33.3002 90.6999 14.6001 85.4999 2.40011C84.6999 0.600105 81.8999 0.500398 81.0999 2.2004C75.8999 14.4004 68.9999 33.2002 68.9999 48.5002ZM95.2999 86.3C97.7999 88 103.3 91.0002 111.3 91.0002C116.5 91.0002 121.9 89.7003 127.5 87.1003C141.9 80.5003 156.6 65.6004 165.3 55.7004C166.2 54.7004 166.5 52.8 164.4 52.8C151.1 53.2 130.1 54.6 115.5 61.3C98.6999 69.1 95.7999 81.6 95.2999 86.3ZM106 48.5002C106 51.6335 105.8 54.5003 105.4 57.1003C107.333 55.8336 109.5 54.6335 111.9 53.5002C115 52.1002 118.2 51.0001 121.6 49.9001C125.7 40.7001 128.6 30.6 130.3 22.8C130.8 20.6 129.7 19.3003 128.3 20.1003C121.3 23.6003 112.7 29.6004 104.9 36.2004C105.6 40.4004 106 44.5002 106 48.5002ZM39.0999 87.1003C44.5999 89.7003 50.0999 91.0002 55.2999 91.0002C63.1999 91.0002 68.6999 88 71.1999 86.3C70.6999 81.6 67.7999 69.1 50.9999 61.3C36.8999 54.8 16.0999 53.1 2.79988 52.8C1.09988 52.8 0.499912 54.9001 1.39991 55.9001C10.0999 65.8001 24.6999 80.5003 39.0999 87.1003ZM39.1999 17.1003C40.0999 26.3003 41.9999 39.1004 45.7999 50.2004C48.7999 51.2004 51.7999 52.3002 54.5999 53.5002C56.9999 54.6335 59.1999 55.8336 61.1999 57.1003C60.7332 54.5003 60.4999 51.6335 60.4999 48.5002C60.4999 43.7002 61.0999 38.7003 61.9999 33.6003C55.1999 26.2003 47.3999 19.5002 41.2999 15.0002C39.7999 13.9002 39.0999 15.7003 39.1999 17.1003ZM76.4999 83.8C78.1999 83.8 79.6999 85.2002 79.6999 87.0002C79.6999 88.8002 78.1999 90.2004 76.4999 90.2004C74.6999 90.2004 73.2999 88.8002 73.2999 87.0002C73.2999 85.2002 74.6999 83.8 76.4999 83.8ZM88.5999 83.8C90.3999 83.8 91.7999 85.2002 91.7999 87.0002C91.7999 88.8002 90.3999 90.2004 88.5999 90.2004C86.8999 90.2004 85.3999 88.8002 85.3999 87.0002C85.3999 85.2002 86.8999 83.8 88.5999 83.8Z" fill="white"/>
</svg>
