<svg width="149" height="81" viewBox="0 0 149 81" fill="none" xmlns="http://www.w3.org/2000/svg">
<path opacity="0.1" d="M61.6 42.7003C61.6 59.2003 70.7 66.2002 74.3 68.4002C77.9 66.2002 87 59.2003 87 42.7003C87 29.2003 80.9 12.6004 76.3 1.80035C75.6 0.20035 73.1001 0.100399 72.4001 1.6004C67.7001 12.4004 61.6 29.1003 61.6 42.7003ZM85.1 76.3004C87.3 77.8004 92.2001 80.5003 99.4001 80.5003C104 80.5003 108.9 79.3004 113.8 77.1004C126.7 71.1004 139.9 57.9004 147.7 49.1004C148.5 48.2004 148.8 46.5004 146.9 46.6004C135 46.9004 116.2 48.1004 103.2 54.1004C88.1001 61.0004 85.5 72.1004 85.1 76.3004ZM94.7001 42.7003C94.7001 45.5003 94.5 48.0669 94.1 50.4002C95.8334 49.2669 97.8 48.2003 100 47.2003C102.7 46.0003 105.6 44.9003 108.6 44.0003C112.3 35.8003 114.9 26.8002 116.4 19.9002C116.8 18.0002 115.9 16.8003 114.6 17.5003C108.4 20.6003 100.6 25.9004 93.7001 31.8004C94.3001 35.5004 94.7001 39.2003 94.7001 42.7003ZM34.7001 77.1004C39.7001 79.3004 44.6001 80.5003 49.2001 80.5003C56.4001 80.5003 61.3 77.8004 63.5 76.3004C63.1 72.1004 60.5001 61.0004 45.4001 54.1004C32.8001 48.3004 14.2 46.8003 2.30004 46.5003C0.800037 46.5003 0.200049 48.4004 1.00005 49.3004C8.80005 58.1004 21.8001 71.1004 34.7001 77.1004ZM34.9001 14.8004C35.7001 23.0003 37.3001 34.4003 40.7001 44.2003C43.5001 45.1003 46.1 46.1003 48.6 47.2003C50.8 48.2003 52.7667 49.2669 54.5 50.4002C54.1 48.0669 53.9001 45.5003 53.9001 42.7003C53.9001 38.5003 54.4 34.0003 55.3 29.5003C49.2 22.9003 42.2 17.0003 36.8 13.0003C35.3 12.0003 34.8001 13.6004 34.9001 14.8004ZM68.2001 74.1004C69.8001 74.1004 71.1 75.4002 71.1 76.9002C71.1 78.5002 69.8001 79.8004 68.2001 79.8004C66.6001 79.8004 65.3 78.5002 65.3 76.9002C65.3 75.4002 66.6001 74.1004 68.2001 74.1004ZM79.1 74.1004C80.7 74.1004 82 75.4002 82 76.9002C82 78.5002 80.7 79.8004 79.1 79.8004C77.5 79.8004 76.2001 78.5002 76.2001 76.9002C76.2001 75.4002 77.5 74.1004 79.1 74.1004Z" fill="#E182A8"/>
</svg>
